<?xml version="1.0" encoding="UTF-8"?>
<svg id="Laag_2" data-name="Laag 2" xmlns="http://www.w3.org/2000/svg" viewBox="0 0 588.8 588.8">
  <defs>
    <style>
      .cls-1 {
        fill: #fff;
      }

      .cls-2 {
        fill: #ec6437;
      }
    </style>
  </defs>
  <g id="Laag_1-2" data-name="Laag 1">
    <circle class="cls-1" cx="294.4" cy="294.4" r="294.4"/>
    <path class="cls-2" d="M294.4,32c35.44,0,69.8,6.93,102.13,20.61,31.24,13.21,59.31,32.14,83.42,56.25,24.11,24.11,43.03,52.17,56.25,83.42,13.67,32.33,20.61,66.69,20.61,102.13s-6.93,69.8-20.61,102.13c-13.21,31.24-32.14,59.31-56.25,83.42-24.11,24.11-52.17,43.03-83.42,56.25-32.33,13.67-66.69,20.61-102.13,20.61s-69.8-6.93-102.13-20.61c-31.24-13.21-59.31-32.14-83.42-56.25-24.11-24.11-43.03-52.17-56.25-83.42-13.67-32.33-20.61-66.69-20.61-102.13s6.93-69.8,20.61-102.13c13.21-31.24,32.14-59.31,56.25-83.42,24.11-24.11,52.17-43.03,83.42-56.25,32.33-13.67,66.69-20.61,102.13-20.61M294.4,0C131.81,0,0,131.81,0,294.4s131.81,294.4,294.4,294.4,294.4-131.81,294.4-294.4S456.99,0,294.4,0h0Z"/>
    <g>
      <g>
        <path class="cls-2" d="M300.98,330.18c-3.07-9.81-10.08-17.11-16.65-24.55-8.77-9.96-14.29-17.46-14.98-31.16-.57-11.31,3.15-23.67,7.38-34.13,2.73-6.75,4.85-13.25,5.68-20.51,1.39-12.29-1.99-23.89-10.2-33.18-12.28-13.92-31.09-20.91-49.59-18.11-11.75,1.78-22.44,6.03-32.19,12.73-6.23,4.28-11.73,9.11-16.46,14.99-6.33,7.86-11.1,16.38-13.83,26.06-5.82,20.64-2.24,41.81,3.97,62.06,8.11,26.5,25.12,64.77,43.5,85.41l3.23,3.62c5.56,6.24,12.04,11.19,19.44,15.19,16.96,9.18,35.31,9.36,51.01-2.43,9.99-7.51,16.92-17.94,20.02-30.05,2.21-8.58,2.25-17.45-.4-25.95h.05Z"/>
        <ellipse class="cls-2" cx="275.81" cy="145.87" rx="23.41" ry="23.39" transform="translate(-.41 .77)"/>
        <ellipse class="cls-2" cx="227.05" cy="139.3" rx="18.83" ry="18.81" transform="translate(-.39 .64)"/>
        <ellipse class="cls-2" cx="186.93" cy="152.41" rx="17.35" ry="17.33" transform="translate(-.43 .52)"/>
        <ellipse class="cls-2" cx="156.51" cy="177.1" rx="15.77" ry="15.75" transform="translate(-.5 .44)"/>
        <circle class="cls-2" cx="141.08" cy="208.52" r="13.09"/>
      </g>
      <g>
        <ellipse class="cls-2" cx="312.66" cy="219.04" rx="23.39" ry="23.38" transform="translate(-.61 .88)"/>
        <ellipse class="cls-2" cx="361.37" cy="212.18" rx="18.83" ry="18.81" transform="translate(-.59 1.01)"/>
        <ellipse class="cls-2" cx="401.58" cy="225.1" rx="17.37" ry="17.35" transform="translate(-.63 1.13)"/>
        <ellipse class="cls-2" cx="432.13" cy="249.6" rx="15.75" ry="15.73" transform="translate(-.7 1.21)"/>
        <ellipse class="cls-2" cx="447.75" cy="280.95" rx="13.11" ry="13.09" transform="translate(-.78 1.25)"/>
        <path class="cls-2" d="M431.45,310.86c-.17-2-.15-3.78-.47-5.72-1.76-11.43-5.76-22.1-12.53-31.41-2.69-3.68-5.25-7.05-8.53-10.17-5.9-5.63-12-10.47-19.32-14.12l-3.57-1.79c-2.9-1.45-5.71-2.27-8.78-3.32-18.48-6.4-36.6-3.93-52.68,7.05-2.55,1.75-4.52,3.81-6.73,5.86-2.71,2.52-4.61,5.25-6.63,8.36-3.9,6.02-5.77,12.78-6.09,20.14-.59,13.56,5.19,24.28,9.44,36.8,4.19,12.34,6.49,26.7,1.35,39.03-.61,1.48-1.74,2.72-2.25,4.2-1.09,3.1-3.13,5.26-5.16,7.71l-3.1,3.77c-2.15,2.6-4.23,5.08-6.61,7.5-1.61,1.64-2.83,3.66-4.25,5.5-3.96,5.15-6.82,10.68-8.01,17.1-.58,3.2-1.04,6.08-1,9.35.2,14.71,6.03,27.3,16.07,37.72,3.21,3.34,6.74,5.75,10.96,8.17,9.92,5.69,21.11,7.1,32.09,4.33,14.21-3.56,24.64-11.61,34.46-22.05,1.42-1.5,2.49-3.14,3.8-4.69,7.89-9.34,15.56-22.38,20.98-33.4l3.88-7.89c5.56-11.27,10.1-22.76,13.91-34.72l2.94-9.23c1.52-4.79,2.6-9.52,3.61-14.56,1.99-9.82,3.02-19.61,2.2-29.55l.02.02Z"/>
      </g>
    </g>
  </g>
</svg>