<?xml version="1.0" encoding="UTF-8"?>
<svg id="Laag_2" data-name="Laag 2" xmlns="http://www.w3.org/2000/svg" viewBox="0 0 230.21 149.25">
  <g id="Laag_1-2" data-name="Laag 1">
    <g>
      <path d="M31.54,54.24c-7.92,0-13.31-.1-16.18-.3-.57-.05-1.04-.24-1.39-.56-.35-.32-.52-.77-.52-1.35.2-21.5.71-38.21,1.54-50.12.02-.5.22-.89.58-1.18.36-.29.81-.46,1.33-.51,1.75-.15,6.71-.22,14.87-.22,7.34,0,12.24.07,14.68.22,1.15.07,1.76.67,1.84,1.8.17,2.02.35,6.37.52,13.04.05.92-.26,1.49-.92,1.7-.66.21-1.31-.08-1.93-.88-2.82-3.42-6.96-5.13-12.4-5.13-2.3,0-4.13.46-5.49,1.39-1.36.92-2.04,2.2-2.04,3.82v.64c0,1.45.57,2.56,1.7,3.33,1.14.77,2.79,1.16,4.96,1.16,2.67,0,5.72-.17,9.14-.52.5-.08.94.06,1.33.41.39.35.58.8.58,1.35v6.52c0,.82-.26,1.34-.79,1.54-.52.2-1.06.03-1.61-.52-2.32-1.72-5.18-2.55-8.58-2.47-4.49.08-6.74,2.12-6.74,6.14v2.1c0,2.55.84,4.46,2.53,5.73s3.89,1.91,6.61,1.91c3.27,0,5.82-.53,7.64-1.59,1.82-1.06,3.46-2.9,4.91-5.52.25-.52.61-.87,1.07-1.03.46-.16.89-.09,1.29.21.4.3.64.77.71,1.42.37,4.17.64,9.31.79,15.43.02.5-.11.91-.39,1.22-.29.31-.69.49-1.22.54-2.82.2-8.97.3-18.43.3Z"/>
      <path d="M72.26,54.46c-5.87,0-10.52-1.9-13.95-5.71-3.43-3.81-5.15-9.23-5.15-16.27,0-6.54,1.6-11.64,4.79-15.3,3.2-3.66,7.34-5.49,12.44-5.49,4.74,0,8.47,1.23,11.16,3.69,2.7,2.46,4.05,6.06,4.05,10.81,0,3.45-1.2,6.35-3.6,8.71-2.4,2.36-5.22,3.54-8.47,3.54-3.5,0-6.31-.84-8.43-2.51-.57-.5-1.01-.62-1.31-.36s-.3.73,0,1.4c.65,2.12,1.93,3.86,3.84,5.21,1.91,1.35,3.94,2.02,6.09,2.02,1.72,0,3.4-.36,5.04-1.09,1.64-.72,3.04-1.72,4.21-3,.5-.72,1.05-.99,1.67-.79.61.2.96.8,1.03,1.8.05.55.22,3.18.52,7.9,0,.97-.3,1.69-.9,2.13-2.8,2.2-7.14,3.3-13.04,3.3ZM70.31,32.85c1.4,0,2.53-.51,3.39-1.52.86-1.01,1.29-2.35,1.29-4.03,0-3.82-1.66-5.73-4.98-5.73-1.57,0-2.97.66-4.18,1.97-1.21,1.31-1.82,3-1.82,5.08,0,1.3.67,2.33,2,3.09,1.34.76,2.77,1.14,4.29,1.14Z"/>
      <path d="M95.63,54.24c-1.42,0-3.11-.1-5.06-.3-1.07-.17-1.61-.86-1.61-2.06,0-15.18.34-27.82,1.01-37.91.15-1.02.71-1.61,1.69-1.76,1.17-.2,2.65-.3,4.42-.3,1.67,0,3.23.1,4.68.3.6.12,1.05.37,1.37.75.31.37.42.81.32,1.31-.5,2.25-.75,4.61-.75,7.08,0,.52.09.89.26,1.1.17.21.37.24.6.07.22-.16.4-.48.52-.96.82-3.27,2.07-5.72,3.73-7.36,1.66-1.64,3.66-2.45,6.01-2.45,2.22,0,4.03.54,5.43,1.61.72.57,1.09,1.29,1.09,2.13-.05,2.25-.18,6.06-.37,11.42-.03.87-.38,1.42-1.05,1.65-.67.22-1.25-.01-1.72-.71-1.85-1.85-4.05-2.77-6.59-2.77-2.22,0-4.11.96-5.66,2.87-1.55,1.91-2.32,4.56-2.32,7.96,0,3.65.36,8.94,1.09,15.88.02.62-.14,1.12-.51,1.5-.36.37-.79.59-1.29.64-1.17.2-2.93.3-5.28.3Z"/>
      <path d="M136.35,54.39c-2.25,0-4.69-.21-7.32-.62-2.63-.41-4.9-.94-6.8-1.59-1.07-.38-1.61-1.15-1.61-2.32l.22-9.03c.08-.95.44-1.52,1.09-1.7.65-.19,1.21.07,1.69.77,1.35,1.27,3.01,2.28,4.98,3.03,1.97.75,3.88,1.12,5.73,1.12s3.27-.32,4.27-.97c1-.65,1.5-1.59,1.5-2.81,0-.7-.26-1.34-.79-1.93-.52-.59-1.22-1.08-2.08-1.48-.86-.4-1.85-.83-2.96-1.29-1.11-.46-2.24-.92-3.39-1.37-1.15-.45-2.28-1.02-3.39-1.7-1.11-.69-2.1-1.44-2.96-2.25-.86-.81-1.55-1.85-2.08-3.11-.52-1.26-.79-2.65-.79-4.18,0-3.65,1.39-6.42,4.16-8.33,2.77-1.91,6.56-2.87,11.35-2.87,4.27,0,7.95.42,11.05,1.27,1.05.48,1.61,1.25,1.69,2.32l.22,7.75c0,1.02-.29,1.64-.88,1.84-.59.2-1.13-.01-1.63-.64-1.02-.82-2.29-1.49-3.8-1.99-1.51-.5-2.99-.75-4.44-.75-1.8-.02-3.23.27-4.29.9-1.06.62-1.59,1.47-1.59,2.55,0,.72.35,1.39,1.05,1.99.7.6,1.6,1.13,2.72,1.59,1.11.46,2.34.95,3.69,1.46,1.35.51,2.7,1.11,4.05,1.8,1.35.69,2.58,1.47,3.69,2.36,1.11.89,2.02,2.03,2.72,3.43.7,1.4,1.05,2.97,1.05,4.72,0,3.77-1.42,6.72-4.25,8.84-2.83,2.12-6.79,3.18-11.85,3.18Z"/>
      <path d="M172.19,54.46c-3.97,0-7.16-1.19-9.57-3.56-2.41-2.37-3.61-5.83-3.61-10.38-.1-7.12.1-13.06.6-17.83.02-.27-.07-.52-.3-.73-.22-.21-.47-.32-.75-.32-1.47,0-2.57.03-3.3.08-.52.02-.97-.15-1.33-.52-.36-.37-.54-.84-.54-1.39-.08-1.9-.08-3.8,0-5.69,0-.55.17-1,.52-1.37.35-.36.8-.54,1.35-.54h3.45c.32,0,.58-.11.77-.32.19-.21.28-.47.28-.77.12-3.05.24-5.29.34-6.74.15-1.1.74-1.74,1.76-1.91,1.17-.2,2.55-.3,4.12-.3,1.95,0,3.53.1,4.76.3.52.07.97.31,1.33.71.36.4.51.87.43,1.42-.4,2.27-.6,4.32-.6,6.14,0,.97.34,1.46,1.01,1.46.77,0,2.08-.01,3.93-.04,1.85-.02,3.17-.04,3.97-.04.55-.02,1.02.15,1.4.52.39.37.58.84.58,1.39v5.92c0,.57-.19,1.06-.58,1.46-.39.4-.86.57-1.4.52-2.25-.2-4.58-.3-7-.3-1.37.08-2.14.81-2.29,2.21-.32,4.4-.4,9.13-.22,14.2.1,1.57.54,2.77,1.33,3.6.79.82,1.82,1.24,3.09,1.24.75,0,1.67-.17,2.75-.51,1.09-.34,1.87-.73,2.34-1.18.55-.65,1.13-.83,1.74-.54.61.29.92.93.92,1.93,0,.85-.01,2.15-.04,3.9-.03,1.75-.04,2.98-.04,3.71,0,1.17-.46,2.04-1.39,2.58-2.8,1.12-6.07,1.69-9.81,1.69Z"/>
      <path d="M203.66,54.46c-5.87,0-10.52-1.9-13.95-5.71-3.43-3.81-5.15-9.23-5.15-16.27,0-6.54,1.6-11.64,4.79-15.3,3.2-3.66,7.34-5.49,12.44-5.49,4.74,0,8.47,1.23,11.16,3.69,2.7,2.46,4.05,6.06,4.05,10.81,0,3.45-1.2,6.35-3.6,8.71-2.4,2.36-5.22,3.54-8.47,3.54-3.5,0-6.31-.84-8.43-2.51-.57-.5-1.01-.62-1.31-.36s-.3.73,0,1.4c.65,2.12,1.93,3.86,3.84,5.21,1.91,1.35,3.94,2.02,6.09,2.02,1.72,0,3.4-.36,5.04-1.09,1.64-.72,3.04-1.72,4.21-3,.5-.72,1.05-.99,1.67-.79.61.2.96.8,1.03,1.8.05.55.22,3.18.52,7.9,0,.97-.3,1.69-.9,2.13-2.8,2.2-7.14,3.3-13.04,3.3ZM201.71,32.85c1.4,0,2.53-.51,3.39-1.52.86-1.01,1.29-2.35,1.29-4.03,0-3.82-1.66-5.73-4.98-5.73-1.57,0-2.97.66-4.18,1.97-1.21,1.31-1.82,3-1.82,5.08,0,1.3.67,2.33,2,3.09,1.34.76,2.77,1.14,4.29,1.14Z"/>
    </g>
    <g>
      <path d="M151.86,79.32c-.41-.46-.97-.68-1.51-.93-.72-.33-1.21-.6-1.58-1.33-.31-.6-.41-1.36-.44-2.04-.02-.43-.06-.84-.2-1.26-.23-.7-.7-1.25-1.37-1.55-1.01-.45-2.21-.37-3.14.24-.6.39-1.07.88-1.44,1.48-.23.39-.41.78-.53,1.22-.15.58-.2,1.16-.11,1.76.19,1.27.91,2.33,1.74,3.28,1.09,1.24,2.96,2.9,4.47,3.57l.26.12c.46.2.93.31,1.43.35,1.15.08,2.15-.36,2.71-1.39.36-.65.48-1.39.35-2.13-.09-.52-.31-1-.66-1.4h0Z"/>
      <circle cx="145.96" cy="69.91" r="1.4" transform="translate(-15.85 66.85) rotate(-24.51)"/>
      <circle cx="143.14" cy="70.76" r="1.12" transform="translate(-16.45 65.76) rotate(-24.51)"/>
      <circle cx="141.28" cy="72.46" r="1.04" transform="translate(-17.33 65.14) rotate(-24.51)"/>
      <circle cx="140.24" cy="74.55" r=".94" transform="translate(-18.29 64.9) rotate(-24.51)"/>
      <circle cx="140.17" cy="76.64" r=".78"/>
    </g>
    <g>
      <path d="M19.03,131.6c-2.65,0-5.67-.29-9.06-.88-3.4-.59-6.31-1.34-8.73-2.27-.77-.42-1.16-1.16-1.16-2.21-.05-2.45-.07-6.18-.07-11.2,0-1.07.35-1.73,1.05-1.97.7-.24,1.32.03,1.87.81,3.67,4.05,8.48,6.07,14.42,6.07,2.37,0,4.23-.47,5.56-1.4,1.34-.94,2-2.23,2-3.88,0-1.22-.43-2.34-1.29-3.35-.86-1.01-1.99-1.9-3.37-2.68-1.39-.77-2.92-1.54-4.61-2.3s-3.37-1.61-5.06-2.55-3.23-1.96-4.63-3.07c-1.4-1.11-2.53-2.51-3.41-4.2-.87-1.69-1.31-3.56-1.31-5.64,0-4.52,1.69-7.99,5.08-10.41,3.38-2.42,7.92-3.63,13.62-3.63,5.32,0,10.08.85,14.27,2.55.87.52,1.31,1.21,1.31,2.06l.3,9.89c0,1.05-.32,1.7-.97,1.97-.65.26-1.26.02-1.84-.73-1.5-1.42-3.22-2.51-5.17-3.26s-3.88-1.12-5.81-1.12c-2.27-.05-4.18.32-5.73,1.12-1.55.8-2.32,1.94-2.32,3.41,0,.87.28,1.7.84,2.49s1.32,1.49,2.27,2.12c.95.62,2.04,1.25,3.28,1.87,1.24.62,2.53,1.25,3.9,1.89,1.36.64,2.72,1.31,4.06,2.02,1.35.71,2.64,1.52,3.88,2.42s2.33,1.87,3.28,2.92c.95,1.05,1.7,2.28,2.27,3.69.56,1.41.84,2.94.84,4.59-.03,4.7-1.77,8.35-5.24,10.96-3.47,2.61-8.24,3.91-14.31,3.91Z"/>
      <path d="M56.71,131.6c-3.97,0-7.16-1.19-9.57-3.56-2.41-2.37-3.61-5.83-3.61-10.38-.1-7.12.1-13.06.6-17.83.02-.27-.07-.52-.3-.73-.22-.21-.47-.32-.75-.32-1.47,0-2.57.03-3.3.08-.52.02-.97-.15-1.33-.52-.36-.37-.54-.84-.54-1.39-.07-1.9-.07-3.8,0-5.69,0-.55.17-1,.52-1.37.35-.36.8-.54,1.35-.54h3.45c.32,0,.58-.11.77-.32.19-.21.28-.47.28-.77.12-3.05.24-5.29.34-6.74.15-1.1.74-1.74,1.76-1.91,1.17-.2,2.55-.3,4.12-.3,1.95,0,3.53.1,4.76.3.52.07.97.31,1.33.71.36.4.51.87.43,1.42-.4,2.27-.6,4.32-.6,6.14,0,.97.34,1.46,1.01,1.46.77,0,2.08-.01,3.93-.04,1.85-.02,3.17-.04,3.97-.04.55-.02,1.02.15,1.4.52.39.37.58.84.58,1.39v5.92c0,.57-.19,1.06-.58,1.46-.39.4-.86.57-1.4.52-2.25-.2-4.58-.3-7-.3-1.37.08-2.14.81-2.28,2.21-.32,4.4-.4,9.13-.22,14.2.1,1.57.54,2.77,1.33,3.6.79.82,1.82,1.24,3.09,1.24.75,0,1.67-.17,2.75-.51,1.09-.34,1.87-.73,2.34-1.18.55-.65,1.13-.83,1.74-.54.61.29.92.93.92,1.93,0,.85-.01,2.15-.04,3.9-.03,1.75-.04,2.98-.04,3.71,0,1.17-.46,2.04-1.39,2.58-2.8,1.12-6.07,1.69-9.81,1.69Z"/>
      <path d="M79.63,131.6c-6.69,0-10.04-3.93-10.04-11.8,0-3.62,1.22-6.56,3.67-8.82,2.45-2.26,5.77-3.79,9.96-4.59,2.85-.6,4.88-1.2,6.09-1.8,1.21-.6,1.82-1.46,1.82-2.58,0-.87-.45-1.6-1.35-2.19-.9-.59-2.26-.88-4.08-.88-1.7,0-3.55.36-5.54,1.09-2,.72-3.71,1.74-5.13,3.03-.55.82-1.15,1.09-1.8.81-.65-.29-.97-.98-.97-2.08-.03-.7-.01-1.56.04-2.58.05-1.02.13-2.22.24-3.6.11-1.37.18-2.23.21-2.58.07-1.2.5-1.96,1.27-2.29,3.25-1.27,7.34-1.91,12.29-1.91,5.37,0,9.36,1.25,11.97,3.75,2.61,2.5,4.11,6.21,4.51,11.12.57,7.02,1.01,15.41,1.31,25.17.07,1.2-.54,1.94-1.84,2.21-1.17.2-2.71.3-4.61.3s-3.53-.1-4.76-.3c-.72-.15-1.29-.46-1.69-.92-.4-.46-.52-1-.37-1.63.32-2.75.5-4.53.52-5.36.05-.47-.01-.82-.19-1.03-.18-.21-.38-.24-.62-.09-.24.15-.43.45-.58.9-.95,2.87-2.34,5.03-4.18,6.48s-3.89,2.17-6.16,2.17ZM85.55,120.55c1.3,0,2.55-.67,3.76-2.02,1.21-1.35,1.82-3.15,1.82-5.39,0-1.17-.26-2.12-.77-2.85-.51-.72-1.28-1.09-2.3-1.09-1.65,0-3.12.66-4.42,1.97-1.3,1.31-1.95,2.97-1.95,4.96,0,1.6.3,2.73.9,3.41.6.67,1.59,1.01,2.96,1.01Z"/>
      <path d="M113.46,148.95c-1.92,0-3.58-.08-4.98-.23-1.02-.15-1.54-.79-1.54-1.91,0-21.2.46-39.69,1.39-55.47.07-1.05.66-1.71,1.76-1.99,1.85-.2,3.36-.3,4.53-.3,2.1,0,3.76.1,4.98.3,1.27.27,1.81.99,1.61,2.13-.5,1.77-.79,3.28-.86,4.53-.03.55.05.94.22,1.16.17.22.38.26.62.09.24-.16.44-.48.62-.96,1.02-2.32,2.44-4.15,4.25-5.49,1.81-1.34,3.78-2,5.9-2,3.92,0,7.02,1.8,9.31,5.39,2.28,3.6,3.43,8.83,3.43,15.69s-1.24,12.1-3.71,15.94c-2.47,3.83-5.72,5.75-9.74,5.75-2.4,0-4.49-.69-6.29-2.06-1.8-1.37-3.15-3.45-4.05-6.22-.15-.47-.35-.79-.6-.94-.25-.15-.47-.1-.66.15s-.28.64-.28,1.16c-.07,7.74.36,15.39,1.31,22.96.07.57-.06,1.05-.39,1.42s-.81.59-1.4.64c-1.4.15-3.21.23-5.43.23ZM126.12,120.25c1.92,0,3.46-.9,4.63-2.72,1.16-1.81,1.74-4.28,1.74-7.4s-.59-5.66-1.76-7.47c-1.17-1.81-2.71-2.72-4.61-2.72s-3.4.91-4.59,2.73c-1.19,1.82-1.78,4.31-1.78,7.45s.59,5.56,1.76,7.38c1.17,1.82,2.71,2.73,4.61,2.73Z"/>
      <path d="M146.91,149.25c-2.8,0-5.56-.56-8.28-1.69-.82-.45-1.24-1.14-1.24-2.06v-7.98c.03-1.02.33-1.66.92-1.91.59-.25,1.19-.02,1.82.67.97.97,2.21,1.46,3.71,1.46,1.17,0,2.15-.5,2.92-1.5.77-1,1.17-2.38,1.2-4.16.2-17.68-.1-31.26-.9-40.75-.03-.5.12-.92.43-1.27.31-.35.71-.59,1.18-.71,1.1-.2,2.73-.3,4.91-.3,1.52,0,2.96.1,4.31.3,1.05.22,1.61.86,1.69,1.91.6,9.56.85,23.57.75,42.03-.03,2.85-.39,5.32-1.09,7.42-.7,2.1-1.67,3.76-2.92,4.98-1.25,1.22-2.65,2.12-4.2,2.7-1.55.57-3.28.86-5.21.86Z"/>
      <path d="M182.04,131.6c-5.87,0-10.52-1.9-13.95-5.71-3.43-3.81-5.15-9.23-5.15-16.27,0-6.54,1.6-11.64,4.79-15.3,3.2-3.66,7.34-5.49,12.44-5.49,4.74,0,8.47,1.23,11.16,3.69,2.7,2.46,4.05,6.06,4.05,10.81,0,3.45-1.2,6.35-3.6,8.71s-5.22,3.54-8.47,3.54c-3.5,0-6.31-.84-8.43-2.51-.57-.5-1.01-.62-1.31-.36-.3.26-.3.73,0,1.4.65,2.12,1.93,3.86,3.84,5.21,1.91,1.35,3.94,2.02,6.09,2.02,1.72,0,3.4-.36,5.04-1.09,1.64-.72,3.04-1.72,4.21-3,.5-.72,1.05-.99,1.67-.79.61.2.96.8,1.03,1.8.05.55.22,3.18.52,7.9,0,.97-.3,1.69-.9,2.13-2.8,2.2-7.14,3.3-13.03,3.3ZM180.09,109.99c1.4,0,2.53-.51,3.39-1.52.86-1.01,1.29-2.35,1.29-4.03,0-3.82-1.66-5.73-4.98-5.73-1.57,0-2.97.66-4.18,1.97-1.21,1.31-1.82,3-1.82,5.08,0,1.3.67,2.33,2,3.09,1.34.76,2.77,1.14,4.29,1.14Z"/>
      <path d="M214.1,131.53c-2.25,0-4.69-.21-7.32-.62-2.64-.41-4.9-.94-6.8-1.59-1.07-.38-1.61-1.15-1.61-2.32l.22-9.03c.07-.95.44-1.52,1.09-1.7.65-.19,1.21.07,1.69.77,1.35,1.27,3.01,2.28,4.98,3.03,1.97.75,3.88,1.12,5.73,1.12s3.27-.32,4.27-.97c1-.65,1.5-1.59,1.5-2.81,0-.7-.26-1.34-.79-1.93-.52-.59-1.22-1.08-2.08-1.48-.86-.4-1.85-.83-2.96-1.29-1.11-.46-2.24-.92-3.39-1.37-1.15-.45-2.28-1.02-3.39-1.7-1.11-.69-2.1-1.44-2.96-2.25s-1.55-1.85-2.08-3.11c-.52-1.26-.79-2.65-.79-4.18,0-3.65,1.39-6.42,4.16-8.33,2.77-1.91,6.55-2.87,11.35-2.87,4.27,0,7.95.42,11.05,1.27,1.05.48,1.61,1.25,1.69,2.32l.22,7.75c0,1.02-.29,1.64-.88,1.84-.59.2-1.13-.01-1.63-.64-1.02-.82-2.29-1.49-3.8-1.99-1.51-.5-2.99-.75-4.44-.75-1.8-.02-3.23.27-4.29.9-1.06.62-1.59,1.47-1.59,2.55,0,.72.35,1.39,1.05,1.99.7.6,1.6,1.13,2.72,1.59,1.11.46,2.34.95,3.69,1.46,1.35.51,2.7,1.11,4.05,1.8,1.35.69,2.58,1.47,3.69,2.36,1.11.89,2.02,2.03,2.72,3.43.7,1.4,1.05,2.97,1.05,4.72,0,3.77-1.42,6.72-4.25,8.84-2.83,2.12-6.79,3.18-11.86,3.18Z"/>
    </g>
    <g>
      <circle cx="150.7" cy="72.69" r="1.39" transform="translate(-16.58 69.07) rotate(-24.51)"/>
      <circle cx="153.17" cy="71.12" r="1.12" transform="translate(-15.7 69.95) rotate(-24.51)"/>
      <circle cx="155.67" cy="70.84" r="1.03" transform="translate(-15.36 70.97) rotate(-24.51)"/>
      <circle cx="157.93" cy="71.42" r=".94" transform="translate(-15.4 71.95) rotate(-24.51)"/>
      <circle cx="159.55" cy="72.73" r=".78" transform="translate(-15.8 72.74) rotate(-24.51)"/>
      <path d="M159.4,74.76c-.06-.1-.1-.2-.17-.3-.38-.58-.86-1.06-1.45-1.4-.24-.13-.46-.25-.71-.34-.46-.16-.91-.27-1.39-.29h-.24c-.19-.02-.37,0-.56.03-1.16.11-2.08.69-2.69,1.68-.1.16-.15.32-.22.48-.08.2-.12.4-.15.62-.06.42,0,.84.16,1.24.3.75.88,1.19,1.42,1.76.53.57,1.01,1.29,1.03,2.08,0,.1-.03.19-.02.28.02.19-.04.36-.09.54l-.08.28c-.05.19-.1.38-.17.57-.05.13-.06.27-.1.4-.09.38-.11.75-.01,1.12.05.19.09.36.18.53.37.79,1,1.33,1.8,1.65.26.1.51.15.79.17.68.07,1.32-.13,1.85-.55.68-.54,1.05-1.24,1.33-2.04.04-.12.06-.23.09-.35.2-.7.29-1.6.32-2.33l.02-.52c.02-.75-.01-1.48-.1-2.23l-.07-.57c-.04-.3-.09-.58-.16-.88-.13-.58-.32-1.14-.61-1.66h0Z"/>
    </g>
  </g>
</svg>