<?xml version="1.0" encoding="UTF-8"?>
<svg id="Laag_2" data-name="Laag 2" xmlns="http://www.w3.org/2000/svg" viewBox="0 0 588.8 588.8">
  <defs>
    <style>
      .cls-1 {
        fill: #ec6437;
      }

      .cls-2 {
        fill: #f5ba50;
      }
    </style>
  </defs>
  <g id="Laag_1-2" data-name="Laag 1">
    <circle class="cls-1" cx="294.4" cy="294.4" r="294.4"/>
    <circle class="cls-2" cx="294.4" cy="294.4" r="214.4"/>
    <g>
      <path class="cls-1" d="M366.7,373.14c-3.3-10.67-10.9-18.62-18.01-26.73-9.5-10.84-15.47-19.01-16.18-33.9-.59-12.29,3.5-25.71,8.13-37.06,2.99-7.33,5.31-14.38,6.23-22.27,1.54-13.34-2.09-25.97-10.98-36.09-13.3-15.16-33.72-22.82-53.83-19.83-12.78,1.9-24.4,6.49-35.01,13.73-6.78,4.63-12.78,9.87-17.94,16.24-6.9,8.52-12.11,17.76-15.1,28.27-6.39,22.41-2.56,45.42,4.12,67.44,8.73,28.82,27.1,70.45,47.01,92.94l3.5,3.95c6.02,6.8,13.05,12.19,21.08,16.57,18.4,10.02,38.33,10.28,55.43-2.48,10.88-8.13,18.44-19.44,21.84-32.59,2.42-9.32,2.5-18.95-.35-28.19h.06Z"/>
      <ellipse class="cls-1" cx="339.92" cy="172.8" rx="25.44" ry="25.42"/>
      <ellipse class="cls-1" cx="286.95" cy="165.51" rx="20.46" ry="20.44"/>
      <ellipse class="cls-1" cx="243.32" cy="179.64" rx="18.85" ry="18.83"/>
      <ellipse class="cls-1" cx="210.19" cy="206.37" rx="17.13" ry="17.11"/>
      <circle class="cls-1" cx="193.33" cy="240.46" r="14.22"/>
    </g>
  </g>
</svg>