<?xml version="1.0" encoding="UTF-8"?>
<svg id="Laag_2" data-name="Laag 2" xmlns="http://www.w3.org/2000/svg" viewBox="0 0 372.36 335.14">
  <g id="Laag_1-2" data-name="Laag 1">
    <g>
      <g>
        <path d="M40.26,298.45c-5.6,0-11.99-.62-19.18-1.86-7.18-1.24-13.34-2.84-18.46-4.79-1.64-.9-2.46-2.46-2.46-4.68-.11-5.18-.16-13.08-.16-23.69,0-2.27.74-3.66,2.22-4.16,1.48-.5,2.8.07,3.96,1.7,7.77,8.56,17.94,12.84,30.51,12.84,5.02,0,8.94-.99,11.77-2.97,2.83-1.98,4.24-4.72,4.24-8.2,0-2.59-.91-4.95-2.73-7.09-1.82-2.14-4.2-4.03-7.13-5.67-2.93-1.64-6.18-3.26-9.75-4.87s-7.13-3.41-10.7-5.39c-3.57-1.98-6.83-4.15-9.79-6.5-2.96-2.35-5.36-5.31-7.21-8.88-1.85-3.57-2.77-7.54-2.77-11.93,0-9.56,3.58-16.9,10.74-22.03,7.16-5.12,16.76-7.69,28.8-7.69,11.25,0,21.32,1.8,30.19,5.39,1.85,1.11,2.77,2.56,2.77,4.36l.63,20.92c0,2.22-.69,3.61-2.06,4.16-1.37.56-2.67.04-3.88-1.55-3.17-3.01-6.81-5.31-10.94-6.89-4.12-1.59-8.22-2.38-12.28-2.38-4.81-.1-8.85.69-12.12,2.38-3.28,1.69-4.91,4.09-4.91,7.21,0,1.85.59,3.6,1.78,5.27,1.19,1.66,2.79,3.16,4.79,4.48,2.01,1.32,4.32,2.64,6.93,3.96,2.61,1.32,5.36,2.65,8.24,4,2.88,1.35,5.75,2.77,8.6,4.28,2.85,1.51,5.59,3.21,8.2,5.11,2.61,1.9,4.93,3.96,6.93,6.18,2.01,2.22,3.61,4.82,4.79,7.81s1.78,6.22,1.78,9.71c-.05,9.93-3.75,17.66-11.09,23.18-7.34,5.52-17.43,8.28-30.27,8.28Z"/>
        <path d="M119.97,298.45c-8.4,0-15.15-2.51-20.25-7.53-5.1-5.02-7.65-12.33-7.65-21.95-.21-15.06.21-27.63,1.27-37.72.05-.58-.16-1.1-.63-1.55-.48-.45-1-.67-1.59-.67-3.12,0-5.44.05-6.97.16-1.11.05-2.05-.32-2.81-1.11-.77-.79-1.15-1.77-1.15-2.93-.16-4.01-.16-8.03,0-12.04,0-1.16.37-2.13,1.11-2.89.74-.77,1.69-1.15,2.85-1.15h7.29c.69,0,1.23-.22,1.62-.67.4-.45.59-.99.59-1.62.26-6.45.5-11.2.71-14.26.32-2.32,1.56-3.67,3.72-4.04,2.48-.42,5.39-.63,8.72-.63,4.12,0,7.47.21,10.06.63,1.11.16,2.05.66,2.81,1.51.77.85,1.07,1.85.91,3.01-.85,4.81-1.27,9.14-1.27,13,0,2.06.71,3.09,2.14,3.09,1.64,0,4.41-.03,8.32-.08,3.91-.05,6.71-.08,8.4-.08,1.16-.05,2.15.32,2.97,1.11.82.79,1.23,1.77,1.23,2.93v12.52c0,1.22-.41,2.25-1.23,3.09-.82.85-1.81,1.22-2.97,1.11-4.75-.42-9.7-.63-14.82-.63-2.91.16-4.52,1.72-4.83,4.68-.69,9.3-.85,19.31-.48,30.03.21,3.33,1.15,5.87,2.81,7.61,1.66,1.74,3.84,2.61,6.54,2.61,1.58,0,3.53-.36,5.82-1.07,2.3-.71,3.95-1.55,4.95-2.5,1.16-1.37,2.39-1.76,3.68-1.15,1.29.61,1.94,1.97,1.94,4.08,0,1.8-.03,4.54-.08,8.24-.05,3.7-.08,6.31-.08,7.84,0,2.48-.98,4.31-2.93,5.47-5.92,2.38-12.84,3.57-20.76,3.57Z"/>
        <path d="M186.54,298.45c-12.42,0-22.25-4.03-29.52-12.08-7.26-8.05-10.9-19.53-10.9-34.43,0-13.84,3.38-24.63,10.14-32.37,6.76-7.74,15.53-11.61,26.31-11.61,10.04,0,17.91,2.6,23.61,7.81s8.56,12.82,8.56,22.86c0,7.29-2.54,13.43-7.61,18.42-5.07,4.99-11.04,7.49-17.91,7.49-7.4,0-13.34-1.77-17.83-5.31-1.22-1.06-2.14-1.31-2.77-.75-.63.56-.63,1.55,0,2.97,1.37,4.49,4.08,8.16,8.12,11.02s8.33,4.28,12.88,4.28c3.65,0,7.2-.77,10.66-2.3,3.46-1.53,6.43-3.65,8.92-6.34,1.06-1.53,2.23-2.09,3.53-1.66,1.29.42,2.02,1.69,2.18,3.8.11,1.16.47,6.74,1.11,16.72,0,2.06-.63,3.56-1.9,4.52-5.92,4.65-15.11,6.97-27.58,6.97ZM182.42,252.73c2.96,0,5.35-1.07,7.17-3.21,1.82-2.14,2.73-4.98,2.73-8.52,0-8.08-3.51-12.12-10.54-12.12-3.33,0-6.27,1.39-8.84,4.16-2.56,2.77-3.84,6.35-3.84,10.74,0,2.75,1.41,4.93,4.24,6.54,2.83,1.61,5.85,2.42,9.07,2.42Z"/>
        <path d="M235.67,335.14c-4.07,0-7.58-.16-10.54-.48-2.17-.32-3.25-1.66-3.25-4.04,0-44.85.98-83.97,2.93-117.36.16-2.22,1.4-3.62,3.72-4.2,3.91-.42,7.1-.63,9.59-.63,4.44,0,7.95.21,10.54.63,2.69.58,3.83,2.09,3.41,4.52-1.06,3.75-1.66,6.95-1.82,9.59-.05,1.16.11,1.98.48,2.46.37.48.8.54,1.31.2.5-.34.94-1.02,1.31-2.02,2.17-4.91,5.16-8.78,8.99-11.61,3.83-2.83,7.99-4.24,12.48-4.24,8.29,0,14.86,3.8,19.69,11.41,4.83,7.61,7.25,18.68,7.25,33.2s-2.61,25.61-7.85,33.72c-5.23,8.11-12.1,12.16-20.6,12.16-5.07,0-9.51-1.45-13.31-4.36-3.8-2.9-6.66-7.29-8.56-13.15-.32-1-.74-1.66-1.27-1.98-.53-.32-.99-.21-1.39.32-.4.53-.59,1.35-.59,2.46-.16,16.38.76,32.57,2.77,48.58.16,1.22-.12,2.22-.83,3.01-.71.79-1.7,1.24-2.97,1.35-2.96.32-6.79.48-11.49.48ZM262.45,274.44c4.07,0,7.33-1.92,9.79-5.75,2.46-3.83,3.68-9.05,3.68-15.65s-1.24-11.98-3.72-15.81c-2.48-3.83-5.73-5.75-9.75-5.75s-7.2,1.93-9.71,5.79c-2.51,3.86-3.76,9.11-3.76,15.77s1.24,11.75,3.72,15.61c2.48,3.86,5.73,5.79,9.75,5.79Z"/>
        <path d="M338.29,298.29c-4.75,0-9.92-.44-15.49-1.31-5.57-.87-10.37-1.99-14.38-3.37-2.27-.79-3.41-2.43-3.41-4.91l.47-19.1c.16-2.01.92-3.21,2.3-3.61,1.37-.4,2.56.15,3.57,1.63,2.85,2.69,6.37,4.83,10.54,6.42,4.17,1.59,8.21,2.38,12.12,2.38s6.92-.69,9.03-2.06c2.11-1.37,3.17-3.35,3.17-5.94,0-1.48-.55-2.84-1.66-4.08-1.11-1.24-2.57-2.28-4.4-3.13-1.82-.84-3.91-1.76-6.26-2.73-2.35-.98-4.74-1.94-7.17-2.89-2.43-.95-4.82-2.15-7.17-3.6-2.35-1.45-4.44-3.04-6.26-4.76-1.82-1.72-3.29-3.91-4.4-6.58-1.11-2.67-1.66-5.61-1.66-8.83,0-7.71,2.93-13.59,8.8-17.63,5.86-4.04,13.87-6.06,24.01-6.06,9.03,0,16.83.9,23.38,2.69,2.22,1.01,3.41,2.64,3.57,4.91l.48,16.4c0,2.17-.62,3.46-1.86,3.88-1.24.42-2.39-.03-3.45-1.35-2.17-1.74-4.85-3.14-8.04-4.2-3.2-1.06-6.33-1.59-9.39-1.59-3.8-.05-6.83.58-9.07,1.9-2.25,1.32-3.37,3.12-3.37,5.39,0,1.53.74,2.93,2.22,4.2,1.48,1.27,3.39,2.39,5.75,3.37,2.35.98,4.95,2.01,7.81,3.09,2.85,1.08,5.71,2.35,8.56,3.8,2.85,1.45,5.45,3.12,7.81,4.99,2.35,1.88,4.27,4.29,5.74,7.25,1.48,2.96,2.22,6.29,2.22,9.99,0,7.98-3,14.21-8.99,18.7-6,4.49-14.36,6.74-25.08,6.74Z"/>
      </g>
      <g>
        <g>
          <path d="M44.89,145.12c-4.02,0-8.03-.21-12.04-.63-1.22-.11-2.19-.5-2.93-1.19-.74-.69-1.11-1.64-1.11-2.85.42-47.76,1.51-83.1,3.25-106.03.05-1.06.46-1.89,1.23-2.5.76-.61,1.7-.96,2.81-1.07,6.02-.32,16.59-.48,31.7-.48s25.23.16,30.83.48c2.43.16,3.72,1.43,3.88,3.8.63,8.24,1.06,17.75,1.27,28.53.05,2.01-.65,3.28-2.1,3.8-1.45.53-2.76-.03-3.92-1.66-2.91-4.07-6.46-7.07-10.66-8.99-4.2-1.93-9.44-2.89-15.73-2.89-4.86,0-8.73.98-11.61,2.93-2.88,1.96-4.32,4.65-4.32,8.08v1.66c0,3.28,1.23,5.9,3.69,7.88s5.93,2.97,10.42,2.97c6.66,0,13-.48,19.02-1.43,1.11-.16,2.06.13,2.85.87.79.74,1.24,1.69,1.35,2.85l.47,17.83c0,1.85-.59,2.97-1.78,3.37-1.19.4-2.31-.01-3.37-1.23-2.59-1.9-5.64-3.35-9.15-4.36-3.51-1-6.96-1.51-10.34-1.51-8.77,0-13.16,5.31-13.16,15.93,0,3.59.28,7.26.83,11.02.55,3.75,1.28,7.65,2.18,11.69.9,4.04,1.45,6.75,1.66,8.12.16,1.11-.11,2.07-.79,2.89-.69.82-1.61,1.31-2.77,1.47-3.01.42-6.89.63-11.65.63Z"/>
          <path d="M134.83,63.95c-3.24,2.62-7.39,4.2-11.88,4.2s-8.58-1.54-11.8-4.13c-1.27,21.43-1.9,46.8-1.9,76.12,0,1.16.33,2.14.99,2.92.66.8,1.51,1.27,2.58,1.43,2.73.42,6.21.63,10.37.63s7.32-.2,9.92-.63c1.05-.16,1.9-.61,2.56-1.35.66-.74.99-1.68.99-2.84,0-30.12-.6-55.58-1.82-76.34Z"/>
          <path d="M157.73,145.12c-3.01,0-6.58-.21-10.7-.63-2.27-.37-3.41-1.82-3.41-4.36,0-32.12.71-58.85,2.14-80.19.32-2.17,1.51-3.41,3.57-3.72,2.48-.42,5.6-.63,9.35-.63,3.54,0,6.84.21,9.91.63,1.27.26,2.23.79,2.89,1.59.66.79.88,1.72.67,2.77-1.06,4.75-1.59,9.75-1.59,14.98,0,1.11.18,1.89.55,2.34.37.45.79.5,1.27.16.48-.34.84-1.02,1.11-2.02,1.74-6.92,4.37-12.11,7.89-15.57,3.51-3.46,7.75-5.19,12.72-5.19,4.7,0,8.53,1.14,11.49,3.41,1.53,1.22,2.3,2.72,2.3,4.52-.11,4.75-.37,12.81-.79,24.17-.05,1.85-.79,3.01-2.22,3.49-1.43.47-2.64-.03-3.65-1.51-3.91-3.91-8.56-5.86-13.95-5.86-4.7,0-8.69,2.02-11.97,6.06-3.28,4.04-4.91,9.65-4.91,16.84,0,7.71.77,18.91,2.3,33.6.05,1.32-.3,2.38-1.07,3.17-.77.79-1.68,1.24-2.73,1.35-2.48.42-6.21.63-11.17.63Z"/>
          <path d="M243.87,145.44c-4.75,0-9.92-.44-15.49-1.31-5.57-.87-10.37-1.99-14.38-3.37-2.27-.79-3.41-2.43-3.41-4.91l.47-19.1c.16-2.01.92-3.21,2.3-3.61,1.37-.4,2.56.15,3.57,1.63,2.85,2.69,6.37,4.83,10.54,6.42,4.17,1.59,8.21,2.38,12.12,2.38s6.92-.69,9.03-2.06c2.11-1.37,3.17-3.35,3.17-5.94,0-1.48-.55-2.84-1.66-4.08-1.11-1.24-2.57-2.28-4.4-3.13-1.82-.84-3.91-1.76-6.26-2.73-2.35-.98-4.74-1.94-7.17-2.89-2.43-.95-4.82-2.15-7.17-3.61-2.35-1.45-4.44-3.04-6.26-4.75-1.82-1.72-3.29-3.91-4.4-6.58-1.11-2.67-1.66-5.61-1.66-8.84,0-7.71,2.93-13.59,8.8-17.63,5.86-4.04,13.87-6.06,24.01-6.06,9.03,0,16.83.9,23.38,2.69,2.22,1,3.41,2.64,3.57,4.91l.48,16.4c0,2.17-.62,3.46-1.86,3.88-1.24.42-2.39-.03-3.45-1.35-2.17-1.74-4.85-3.14-8.04-4.2-3.2-1.06-6.33-1.58-9.39-1.58-3.8-.05-6.83.58-9.07,1.9-2.25,1.32-3.37,3.12-3.37,5.39,0,1.53.74,2.93,2.22,4.2,1.48,1.27,3.39,2.39,5.75,3.37,2.35.98,4.95,2.01,7.81,3.09,2.85,1.08,5.71,2.35,8.56,3.8,2.85,1.45,5.45,3.12,7.81,4.99,2.35,1.88,4.27,4.29,5.74,7.25,1.48,2.96,2.22,6.29,2.22,9.98,0,7.98-3,14.21-8.99,18.7-6,4.49-14.36,6.74-25.08,6.74Z"/>
          <path d="M319.71,145.6c-8.4,0-15.15-2.51-20.25-7.53-5.1-5.02-7.65-12.33-7.65-21.95-.21-15.06.21-27.63,1.27-37.72.05-.58-.16-1.1-.63-1.55-.48-.45-1-.67-1.59-.67-3.12,0-5.44.05-6.97.16-1.11.05-2.05-.32-2.81-1.11-.77-.79-1.15-1.77-1.15-2.93-.16-4.01-.16-8.03,0-12.04,0-1.16.37-2.13,1.11-2.89.74-.77,1.69-1.15,2.85-1.15h7.29c.69,0,1.23-.22,1.62-.67.4-.45.59-.99.59-1.62.26-6.45.5-11.2.71-14.26.32-2.32,1.56-3.67,3.72-4.04,2.48-.42,5.39-.63,8.72-.63,4.12,0,7.47.21,10.06.63,1.11.16,2.05.66,2.81,1.51.77.85,1.07,1.85.91,3.01-.85,4.81-1.27,9.14-1.27,13,0,2.06.71,3.09,2.14,3.09,1.64,0,4.41-.03,8.32-.08,3.91-.05,6.71-.08,8.4-.08,1.16-.05,2.15.32,2.97,1.11.82.79,1.23,1.77,1.23,2.93v12.52c0,1.22-.41,2.25-1.23,3.09-.82.85-1.81,1.22-2.97,1.11-4.75-.42-9.7-.63-14.82-.63-2.91.16-4.52,1.72-4.83,4.68-.69,9.3-.85,19.31-.48,30.03.21,3.33,1.15,5.86,2.81,7.61,1.66,1.74,3.84,2.61,6.54,2.61,1.58,0,3.53-.36,5.82-1.07,2.3-.71,3.95-1.55,4.95-2.5,1.16-1.37,2.39-1.76,3.68-1.15,1.29.61,1.94,1.97,1.94,4.08,0,1.8-.03,4.54-.08,8.24-.05,3.7-.08,6.31-.08,7.84,0,2.48-.98,4.31-2.93,5.47-5.92,2.38-12.84,3.57-20.76,3.57Z"/>
        </g>
        <g>
          <ellipse cx="118.03" cy="5.97" rx="5.44" ry="5.44" transform="translate(-.02 .33)"/>
          <ellipse cx="129.36" cy="4.38" rx="4.38" ry="4.38" transform="translate(-.01 .36)"/>
          <ellipse cx="138.71" cy="7.38" rx="4.04" ry="4.04" transform="translate(-.02 .39)"/>
          <ellipse cx="145.82" cy="13.08" rx="3.66" ry="3.66" transform="translate(-.04 .41)"/>
          <ellipse cx="149.45" cy="20.37" rx="3.05" ry="3.05" transform="translate(-.06 .42)"/>
          <path d="M145.66,27.33c-.04-.46-.04-.88-.11-1.33-.41-2.66-1.34-5.14-2.92-7.31-.63-.86-1.22-1.64-1.99-2.37-1.37-1.31-2.79-2.43-4.49-3.28l-.83-.42c-.67-.34-1.33-.53-2.04-.77-4.3-1.49-8.51-.91-12.26,1.64-.59.41-1.05.89-1.56,1.36-.63.59-1.07,1.22-1.54,1.95-.91,1.4-1.34,2.97-1.42,4.68-.14,3.15,1.21,5.65,2.19,8.56.97,2.87,1.51,6.21.31,9.08-.14.34-.4.63-.52.98-.25.72-.73,1.22-1.2,1.79l-.72.88c-.5.6-.98,1.18-1.54,1.74-.38.38-.66.85-.99,1.28-.92,1.2-1.59,2.48-1.86,3.98-.14.74-.24,1.41-.23,2.18.05,3.42,1.4,6.35,3.74,8.77.75.78,1.57,1.34,2.55,1.9,2.31,1.32,4.91,1.65,7.47,1.01,3.31-.83,5.73-2.7,8.02-5.13.33-.35.58-.73.88-1.09,1.83-2.17,3.62-5.21,4.88-7.77l.9-1.83c1.29-2.62,2.35-5.29,3.24-8.08l.68-2.15c.35-1.11.6-2.21.84-3.39.46-2.29.7-4.56.51-6.87h0Z"/>
        </g>
      </g>
    </g>
  </g>
</svg>