<?xml version="1.0" encoding="UTF-8"?>
<svg id="Laag_2" data-name="Laag 2" xmlns="http://www.w3.org/2000/svg" viewBox="0 0 264.8 264.8">
  <defs>
    <style>
      .cls-1 {
        fill: #fff;
      }
    </style>
  </defs>
  <g id="Laag_1-2" data-name="Laag 1">
    <g>
      <path class="cls-1" d="M135.92,152.33c-1.69-5.46-5.58-9.53-9.22-13.68-4.86-5.55-7.92-9.73-8.28-17.35-.3-6.29,1.79-13.16,4.16-18.97,1.53-3.75,2.72-7.36,3.19-11.4.79-6.83-1.07-13.29-5.62-18.47-6.81-7.76-17.26-11.68-27.55-10.15-6.54.97-12.49,3.32-17.92,7.03-3.47,2.37-6.54,5.05-9.18,8.31-3.53,4.36-6.2,9.09-7.73,14.47-3.27,11.47-1.31,23.25,2.11,34.52,4.47,14.75,13.87,36.06,24.06,47.57l1.79,2.02c3.08,3.48,6.68,6.24,10.79,8.48,9.42,5.13,19.62,5.26,28.37-1.27,5.57-4.16,9.44-9.95,11.18-16.68,1.24-4.77,1.28-9.7-.18-14.43ZM119.13,168.67c-.64,1.57-1.05,3.1-2,4.56-5.78.24-13.66-.29-18.34-3.95-1.95-1.53-3.35-3.65-3.62-6.04-.35-3.15.81-6.01,3.6-7.46,2.14-1.11,4.56-1.05,6.96-.43.39-1.67.58-3.28,1.55-4.52,1.68-2.15,4.11-3.12,6.82-2.87,2.45.22,4.62,1.72,5.95,4.11,2.64,4.72,1.03,11.83-.93,16.61Z"/>
      <ellipse class="cls-1" cx="122.21" cy="49.79" rx="13.02" ry="13.01"/>
      <ellipse class="cls-1" cx="95.1" cy="46.06" rx="10.47" ry="10.46"/>
      <ellipse class="cls-1" cx="72.77" cy="53.29" rx="9.65" ry="9.64"/>
      <ellipse class="cls-1" cx="55.81" cy="66.97" rx="8.77" ry="8.76"/>
      <ellipse class="cls-1" cx="47.18" cy="84.42" rx="7.28" ry="7.28"/>
    </g>
  </g>
</svg>