<?xml version="1.0" encoding="UTF-8"?>
<svg id="Laag_2" data-name="Laag 2" xmlns="http://www.w3.org/2000/svg" viewBox="0 0 264.8 264.8">
  <defs>
    <style>
      .cls-1 {
        fill: #fff;
      }
    </style>
  </defs>
  <g id="Laag_1-2" data-name="Laag 1">
    <g>
      <ellipse class="cls-1" cx="142.59" cy="90.54" rx="13.01" ry="13"/>
      <ellipse class="cls-1" cx="169.69" cy="86.8" rx="10.47" ry="10.46"/>
      <ellipse class="cls-1" cx="192.03" cy="94.05" rx="9.66" ry="9.65"/>
      <ellipse class="cls-1" cx="208.98" cy="107.72" rx="8.76" ry="8.75"/>
      <ellipse class="cls-1" cx="217.62" cy="125.18" rx="7.29" ry="7.28"/>
      <path class="cls-1" d="M208.51,141.79c-.09-1.11-.08-2.1-.25-3.18-.96-6.36-3.17-12.3-6.92-17.49-1.49-2.05-2.91-3.93-4.73-5.67-3.27-3.14-6.66-5.84-10.72-7.88l-1.98-1c-1.61-.81-3.17-1.27-4.88-1.86-10.27-3.59-20.35-2.24-29.31,3.84-1.42.97-2.52,2.11-3.75,3.25-1.51,1.4-2.57,2.91-3.7,4.64-2.18,3.34-3.23,7.1-3.42,11.19-.35,7.54,2.85,13.51,5.19,20.48,2.31,6.87,3.57,14.86.69,21.71-.34.82-.97,1.51-1.26,2.33-.61,1.72-1.75,2.92-2.88,4.28l-1.73,2.09c-1.2,1.44-2.36,2.82-3.69,4.16-.9.91-1.58,2.03-2.37,3.05-2.21,2.86-3.81,5.93-4.48,9.5-.33,1.78-.59,3.38-.57,5.2.09,8.18,3.31,15.19,8.88,21,1.78,1.86,3.74,3.21,6.08,4.56,5.51,3.18,11.73,3.98,17.84,2.46,7.91-1.96,13.72-6.42,19.2-12.21.79-.83,1.39-1.74,2.12-2.6,4.4-5.18,8.69-12.42,11.72-18.54l2.17-4.38c3.11-6.26,5.65-12.64,7.79-19.29l1.65-5.13c.85-2.66,1.46-5.29,2.03-8.09,1.12-5.46,1.71-10.9,1.27-16.43ZM166.76,209.41c-2.49,2.54-7.35,3.83-10.74,4.2-2.83.31-5.5.71-8.38.43-2.31-4.76-4.93-11.91-4.22-17.07.43-3.09,1.89-6.14,4.67-7.51,3.4-1.68,7.18-.76,9.43,2.11.98,1.24,1.23,2.76,1.58,4.44,3.21-.51,6.41-.77,8.74,1.87.55.63,1.08,1.21,1.38,2.04,1.22,3.39.08,6.91-2.45,9.49Z"/>
    </g>
  </g>
</svg>