<?xml version="1.0" encoding="UTF-8"?>
<svg id="Laag_2" data-name="Laag 2" xmlns="http://www.w3.org/2000/svg" viewBox="0 0 264.8 264.8">
  <defs>
    <style>
      .cls-1 {
        fill: #fff;
      }

      .cls-2 {
        fill: #1e1e1e;
      }
    </style>
  </defs>
  <g id="Laag_1-2" data-name="Laag 1">
    <circle class="cls-1" cx="132.4" cy="132.4" r="132.4"/>
    <g>
      <path class="cls-2" d="M135.92,159.93c-1.69-5.46-5.58-9.53-9.22-13.68-4.86-5.55-7.92-9.73-8.28-17.35-.3-6.29,1.79-13.16,4.16-18.97,1.53-3.75,2.72-7.36,3.19-11.4.79-6.83-1.07-13.29-5.62-18.47-6.81-7.76-17.26-11.68-27.55-10.15-6.54.97-12.49,3.32-17.92,7.03-3.47,2.37-6.54,5.05-9.18,8.31-3.53,4.36-6.2,9.09-7.73,14.47-3.27,11.47-1.31,23.25,2.11,34.52,4.47,14.75,13.87,36.06,24.06,47.57l1.79,2.02c3.08,3.48,6.68,6.24,10.79,8.48,9.42,5.13,19.62,5.26,28.37-1.27,5.57-4.16,9.44-9.95,11.18-16.68,1.24-4.77,1.28-9.7-.18-14.43ZM119.13,176.27c-.64,1.57-1.05,3.1-2,4.56-5.78.24-13.66-.29-18.34-3.95-1.95-1.53-3.35-3.65-3.62-6.04-.35-3.15.81-6.01,3.6-7.46,2.14-1.11,4.56-1.05,6.96-.43.39-1.67.58-3.28,1.55-4.52,1.68-2.15,4.11-3.12,6.82-2.87,2.45.22,4.62,1.72,5.95,4.11,2.64,4.72,1.03,11.83-.93,16.61Z"/>
      <ellipse class="cls-2" cx="122.21" cy="57.39" rx="13.02" ry="13.01"/>
      <ellipse class="cls-2" cx="95.1" cy="53.66" rx="10.47" ry="10.46"/>
      <ellipse class="cls-2" cx="72.77" cy="60.89" rx="9.65" ry="9.64"/>
      <ellipse class="cls-2" cx="55.81" cy="74.57" rx="8.77" ry="8.76"/>
      <ellipse class="cls-2" cx="47.18" cy="92.02" rx="7.28" ry="7.28"/>
      <ellipse class="cls-2" cx="142.59" cy="98.14" rx="13.01" ry="13"/>
      <ellipse class="cls-2" cx="169.69" cy="94.4" rx="10.47" ry="10.46"/>
      <ellipse class="cls-2" cx="192.03" cy="101.65" rx="9.66" ry="9.65"/>
      <ellipse class="cls-2" cx="208.98" cy="115.32" rx="8.76" ry="8.75"/>
      <ellipse class="cls-2" cx="217.62" cy="132.78" rx="7.29" ry="7.28"/>
      <path class="cls-2" d="M208.51,149.39c-.09-1.11-.08-2.1-.25-3.18-.96-6.36-3.17-12.3-6.92-17.49-1.49-2.05-2.91-3.93-4.73-5.67-3.27-3.14-6.66-5.84-10.72-7.88l-1.98-1c-1.61-.81-3.17-1.27-4.88-1.86-10.27-3.59-20.35-2.24-29.31,3.84-1.42.97-2.52,2.11-3.75,3.25-1.51,1.4-2.57,2.91-3.7,4.64-2.18,3.34-3.23,7.1-3.42,11.19-.35,7.54,2.85,13.51,5.19,20.48,2.31,6.87,3.57,14.86.69,21.71-.34.82-.97,1.51-1.26,2.33-.61,1.72-1.75,2.92-2.88,4.28l-1.73,2.09c-1.2,1.44-2.36,2.82-3.69,4.16-.9.91-1.58,2.03-2.37,3.05-2.21,2.86-3.81,5.93-4.48,9.5-.33,1.78-.59,3.38-.57,5.2.09,8.18,3.31,15.19,8.88,21,1.78,1.86,3.74,3.21,6.08,4.56,5.51,3.18,11.73,3.98,17.84,2.46,7.91-1.96,13.72-6.42,19.2-12.21.79-.83,1.39-1.74,2.12-2.6,4.4-5.18,8.69-12.42,11.72-18.54l2.17-4.38c3.11-6.26,5.65-12.64,7.79-19.29l1.65-5.13c.85-2.66,1.46-5.29,2.03-8.09,1.12-5.46,1.71-10.9,1.27-16.43ZM166.76,217.01c-2.49,2.54-7.35,3.83-10.74,4.2-2.83.31-5.5.71-8.38.43-2.31-4.76-4.93-11.91-4.22-17.07.43-3.09,1.89-6.14,4.67-7.51,3.4-1.68,7.18-.76,9.43,2.11.98,1.24,1.23,2.76,1.58,4.44,3.21-.51,6.41-.77,8.74,1.87.55.63,1.08,1.21,1.38,2.04,1.22,3.39.08,6.91-2.45,9.49Z"/>
    </g>
  </g>
</svg>